<svg width="206" height="207" xmlns="http://www.w3.org/2000/svg" xmlns:xlink="http://www.w3.org/1999/xlink" xml:space="preserve" overflow="hidden"><g transform="translate(-2594 -2069)"><path d="M2596.5 2105C2596.5 2086.5 2611.5 2071.5 2630 2071.5L2764 2071.5C2782.5 2071.5 2797.5 2086.5 2797.5 2105L2797.5 2240C2797.5 2258.5 2782.5 2273.5 2764 2273.5L2630 2273.5C2611.5 2273.5 2596.5 2258.5 2596.5 2240Z" stroke="#FF0000" stroke-width="4.58333" stroke-miterlimit="8" fill="#FF0000" fill-rule="evenodd"/><g><g><g><path d="M2733.33 2183.66C2731.16 2178.41 2722.18 2179.04 2716.02 2164.16 2716.02 2164.16 2712.38 2155.4 2702.16 2158.69 2702.63 2159.77 2702.95 2160.92 2703.11 2162.09 2703.42 2164.42 2703.15 2166.79 2702.34 2168.99 2698.81 2177.52 2699.9 2182.64 2700.78 2186.77 2701.39 2188.92 2701.55 2191.18 2701.26 2193.4 2703.71 2191.5 2706.37 2189.88 2709.18 2188.58 2708.95 2190.66 2710.44 2192.54 2712.52 2192.77 2714.6 2193.01 2716.48 2191.52 2716.72 2189.44 2716.87 2188.14 2716.33 2186.85 2715.31 2186.04 2722.71 2183.44 2728.91 2182.95 2729.79 2185.09 2730.74 2187.51 2724.55 2192.4 2715.84 2196 2707.13 2199.6 2699.34 2200.59 2698.3 2198.2 2698.3 2198.2 2698.3 2198.13 2698.3 2198.09 2697.24 2198.81 2696.06 2199.32 2694.81 2199.61 2694.81 2199.61 2694.81 2199.61 2694.81 2199.61 2696.59 2203.89 2706.64 2204.2 2717.44 2199.72 2728.24 2195.25 2735.11 2187.94 2733.33 2183.66Z" stroke="#FFFFFF" stroke-width="0.740421" fill="#FFFFFF"/><path d="M2697.69 2157.06C2700.12 2154.31 2699.85 2150.11 2697.1 2147.69 2696.55 2147.21 2695.93 2146.82 2695.26 2146.55 2691.87 2145.15 2687.99 2146.75 2686.59 2150.14 2686.31 2150.81 2686.15 2151.51 2686.1 2152.23 2679.47 2152.45 2676.98 2158.44 2676.98 2158.44 2670.82 2173.32 2661.82 2172.66 2659.67 2177.94 2657.89 2182.23 2664.79 2189.55 2675.58 2194.06 2686.37 2198.56 2696.43 2198.23 2698.21 2193.94 2700.38 2188.72 2693.59 2182.78 2699.75 2167.86 2699.75 2167.86 2702.19 2161.91 2697.69 2157.06ZM2694.7 2192.51C2693.66 2194.9 2685.83 2193.94 2677.12 2190.33 2668.42 2186.72 2662.17 2181.8 2663.17 2179.42 2664.05 2177.3 2670.25 2177.79 2677.66 2180.37 2676.01 2181.67 2675.74 2184.05 2677.04 2185.69 2678.34 2187.33 2680.73 2187.61 2682.37 2186.31 2683.39 2185.49 2683.93 2184.21 2683.78 2182.91 2690.81 2186.32 2695.55 2190.36 2694.7 2192.51ZM2695.34 2153.79C2695.2 2154.14 2694.98 2154.47 2694.7 2154.74 2693.95 2154.29 2693.17 2153.9 2692.36 2153.57 2691.55 2153.22 2690.71 2152.93 2689.86 2152.7 2689.85 2152.31 2689.93 2151.93 2690.07 2151.57 2690.61 2150.09 2692.24 2149.33 2693.72 2149.87 2695.19 2150.41 2695.95 2152.04 2695.42 2153.52 2695.39 2153.59 2695.36 2153.67 2695.32 2153.74Z" stroke="#FFFFFF" stroke-width="0.740421" fill="#FFFFFF"/></g></g></g></g></svg>