<svg width="96" height="96" xmlns="http://www.w3.org/2000/svg" xmlns:xlink="http://www.w3.org/1999/xlink" xml:space="preserve" overflow="hidden"><g transform="translate(-664 -582)"><path d="M750.85 639.66C748.56 634.12 739.09 634.79 732.59 619.09 732.59 619.09 728.75 609.85 717.97 613.32 718.465 614.466 718.801 615.673 718.97 616.91 719.297 619.366 719.019 621.866 718.16 624.19 714.44 633.19 715.59 638.59 716.51 642.94 717.158 645.214 717.331 647.596 717.02 649.94 719.604 647.931 722.409 646.224 725.38 644.85 725.129 647.045 726.706 649.027 728.9 649.278 731.095 649.529 733.078 647.953 733.328 645.758 733.485 644.385 732.922 643.029 731.84 642.17 739.65 639.43 746.19 638.91 747.12 641.17 748.12 643.73 741.59 648.88 732.4 652.68 723.21 656.48 715 657.52 713.9 655 713.9 655 713.9 654.93 713.9 654.89 712.78 655.641 711.533 656.183 710.22 656.49 710.22 656.49 710.22 656.49 710.22 656.49 712.09 661.01 722.7 661.33 734.09 656.61 745.48 651.89 752.73 644.18 750.85 639.66Z" stroke="#FF0000" stroke-width="0.781207" fill="#FF0000"/><path d="M713.26 611.6C715.814 608.698 715.533 604.275 712.631 601.721 712.055 601.213 711.399 600.804 710.69 600.51 707.118 599.032 703.024 600.73 701.546 604.303 701.255 605.006 701.081 605.751 701.03 606.51 694.03 606.74 691.41 613.06 691.41 613.06 684.91 628.76 675.41 628.06 673.15 633.63 671.27 638.15 678.55 645.88 689.93 650.63 701.31 655.38 711.93 655.03 713.8 650.51 716.09 645 708.93 638.74 715.43 623 715.43 623 718 616.72 713.26 611.6ZM710.1 649C709 651.52 700.74 650.51 691.56 646.7 682.38 642.89 675.78 637.7 676.84 635.19 677.77 632.95 684.31 633.47 692.12 636.19 690.389 637.563 690.099 640.079 691.472 641.81 692.845 643.54 695.361 643.831 697.092 642.458 698.174 641.599 698.737 640.243 698.58 638.87 706 642.47 711 646.73 710.1 649ZM710.78 608.15C710.624 608.526 710.392 608.866 710.1 609.15 709.308 608.681 708.482 608.27 707.63 607.92 706.775 607.554 705.896 607.247 705 607 704.989 606.592 705.064 606.187 705.22 605.81 705.788 604.253 707.51 603.452 709.066 604.019 710.623 604.587 711.424 606.309 710.857 607.866 710.828 607.945 710.796 608.023 710.76 608.1Z" stroke="#FF0000" stroke-width="0.781207" fill="#FF0000"/></g></svg>