<svg width="96" height="96" xmlns="http://www.w3.org/2000/svg" xmlns:xlink="http://www.w3.org/1999/xlink" xml:space="preserve" overflow="hidden"><g transform="translate(-718 -2)"><path d="M796 67.6 782.31 45.78C782.065 45.3801 781.629 45.1374 781.16 45.14 780.689 45.1398 780.251 45.3815 780 45.78L776 52.2 784.58 66.08C785.306 67.178 785.462 68.5574 785 69.79L794.7 69.79C795.494 69.8297 796.17 69.2179 796.21 68.4236 796.224 68.1342 796.151 67.8472 796 67.6Z" stroke="#FFFFFF" stroke-width="1.57291" fill="#FFFFFF"/><path d="M781.1 67.73 759.35 32.34C759.071 31.9795 758.636 31.7749 758.18 31.79L758 31.79 757.82 31.79C757.364 31.7749 756.929 31.9795 756.65 32.34L734.9 67.73C734.592 68.1611 734.549 68.7279 734.79 69.2 735.033 69.6278 735.513 69.8623 736 69.79L780 69.79C780.487 69.8623 780.967 69.6278 781.21 69.2 781.451 68.7279 781.408 68.1611 781.1 67.73ZM761.64 48.92 758.18 52 754.72 48.92 749 52.38 758 37.79 766.76 52Z" stroke="#FFFFFF" stroke-width="1.57291" fill="#FFFFFF"/><path d="M748 34C748 35.6569 746.657 37 745 37 743.343 37 742 35.6569 742 34 742 32.3431 743.343 31 745 31 746.657 31 748 32.3431 748 34Z" stroke="#FFFFFF" stroke-width="1.57291" fill="#FFFFFF"/><path d="M732 76 732 26 800 26 800 76ZM806 82 806 20 726 20 726 82Z" stroke="#FFFFFF" stroke-width="1.57291" fill="#FFFFFF"/></g></svg>