<svg width="96" height="96" xmlns="http://www.w3.org/2000/svg" xmlns:xlink="http://www.w3.org/1999/xlink" xml:space="preserve" overflow="hidden"><g transform="translate(-877 -296)"><path d="M956.93 330.68 920.93 339.21 920.93 369C918.922 368.6 916.842 368.777 914.93 369.51 910.59 371.09 907.93 374.71 908.93 377.6 909.93 380.49 914.34 381.6 918.68 379.99 922.6 378.57 924.84 374.99 924.84 372.77L924.84 343.92 952.84 337.31 952.84 362.41C950.789 361.997 948.662 362.177 946.71 362.93 942.27 364.56 939.53 368.29 940.61 371.28 941.69 374.27 946.16 375.37 950.61 373.75 954.37 372.4 956.87 369.61 957 367Z" stroke="#7030A0" fill="#7030A0"/><path d="M910.58 313.4C909.7 312.825 908.964 312.056 908.43 311.15L908.43 309.31C908.43 308.205 907.535 307.31 906.43 307.31 905.325 307.31 904.43 308.205 904.43 309.31L904.43 339.5C902.496 339.159 900.505 339.349 898.67 340.05 894.33 341.62 891.67 345.24 892.67 348.14 893.67 351.04 898.09 352.14 902.43 350.53 905.43 349.43 907.65 347.34 908.36 345.19L908.36 324.1C908.63 324.312 908.914 324.505 909.21 324.68 915.88 328.68 912.21 335 915.47 335.03 919.66 335.06 919.83 319.57 910.58 313.4Z" stroke="#7030A0" fill="#7030A0"/></g></svg>