<svg width="96" height="96" xmlns="http://www.w3.org/2000/svg" xmlns:xlink="http://www.w3.org/1999/xlink" xml:space="preserve" overflow="hidden"><g transform="translate(-858 -296)"><path d="M937.93 330.68 901.93 339.21 901.93 369C899.922 368.6 897.842 368.777 895.93 369.51 891.59 371.09 888.93 374.71 889.93 377.6 890.93 380.49 895.34 381.6 899.68 379.99 903.6 378.57 905.84 374.99 905.84 372.77L905.84 343.92 933.84 337.31 933.84 362.41C931.789 361.997 929.662 362.177 927.71 362.93 923.27 364.56 920.53 368.29 921.61 371.28 922.69 374.27 927.16 375.37 931.61 373.75 935.37 372.4 937.87 369.61 938 367Z" stroke="#000000" fill="#333333"/><path d="M891.58 313.4C890.7 312.825 889.964 312.056 889.43 311.15L889.43 309.31C889.43 308.205 888.535 307.31 887.43 307.31 886.325 307.31 885.43 308.205 885.43 309.31L885.43 339.5C883.496 339.159 881.505 339.349 879.67 340.05 875.33 341.62 872.67 345.24 873.67 348.14 874.67 351.04 879.09 352.14 883.43 350.53 886.43 349.43 888.65 347.34 889.36 345.19L889.36 324.1C889.63 324.312 889.914 324.505 890.21 324.68 896.88 328.68 893.21 335 896.47 335.03 900.66 335.06 900.83 319.57 891.58 313.4Z" stroke="#000000" fill="#333333"/></g></svg>