<svg width="96" height="96" xmlns="http://www.w3.org/2000/svg" xmlns:xlink="http://www.w3.org/1999/xlink" xml:space="preserve" overflow="hidden"><g transform="translate(-19 -168)"><path d="M105.85 225.66C103.56 220.12 94.09 220.79 87.59 205.09 87.59 205.09 83.75 195.85 72.97 199.32 73.4649 200.466 73.8014 201.673 73.97 202.91 74.2975 205.366 74.0194 207.866 73.16 210.19 69.44 219.19 70.59 224.59 71.51 228.94 72.1576 231.214 72.3312 233.596 72.02 235.94 74.6042 233.931 77.409 232.224 80.38 230.85 80.1294 233.045 81.7055 235.027 83.9004 235.278 86.0953 235.529 88.0777 233.952 88.3283 231.758 88.4851 230.385 87.9224 229.029 86.84 228.17 94.65 225.43 101.19 224.91 102.12 227.17 103.12 229.73 96.59 234.88 87.4 238.68 78.21 242.48 70 243.52 68.9 241 68.9 241 68.9 240.93 68.9 240.89 67.78 241.641 66.5332 242.183 65.22 242.49 65.22 242.49 65.22 242.49 65.22 242.49 67.09 247.01 77.7 247.33 89.09 242.61 100.48 237.89 107.73 230.18 105.85 225.66Z" stroke="#7030A0" fill="#7030A0"/><path d="M68.26 197.6C70.8144 194.698 70.5327 190.275 67.6308 187.721 67.0546 187.213 66.3989 186.804 65.69 186.51 62.1176 185.032 58.0236 186.73 56.5459 190.303 56.2551 191.006 56.0809 191.751 56.03 192.51 49.03 192.74 46.41 199.06 46.41 199.06 39.91 214.76 30.41 214.06 28.15 219.63 26.27 224.15 33.55 231.88 44.93 236.63 56.31 241.38 66.93 241.03 68.8 236.51 71.09 231 63.93 224.74 70.43 209 70.43 209 73 202.72 68.26 197.6ZM65.1 235C64 237.52 55.74 236.51 46.56 232.7 37.38 228.89 30.78 223.7 31.84 221.19 32.77 218.95 39.31 219.47 47.12 222.19 45.3893 223.563 45.0991 226.079 46.472 227.81 47.8449 229.54 50.3609 229.831 52.0917 228.458 53.174 227.599 53.7367 226.243 53.58 224.87 61 228.47 66 232.73 65.1 235ZM65.78 194.15C65.6236 194.526 65.3922 194.866 65.1 195.15 64.3076 194.681 63.4821 194.27 62.63 193.92 61.7751 193.554 60.8964 193.247 60 193 59.9894 192.592 60.0644 192.187 60.22 191.81 60.7877 190.253 62.5097 189.452 64.0663 190.019 65.6228 190.587 66.4245 192.309 65.8569 193.866 65.8279 193.945 65.7956 194.023 65.76 194.1Z" stroke="#7030A0" fill="#7030A0"/></g></svg>