<svg width="96" height="96" xmlns="http://www.w3.org/2000/svg" xmlns:xlink="http://www.w3.org/1999/xlink" xml:space="preserve" overflow="hidden"><g transform="translate(-1187 -301)"><path d="M1213 353C1213 340.9 1222.9 331 1235 331 1247.1 331 1257 340.9 1257 353 1257 365.1 1247.1 375 1235 375 1222.9 375 1213 365.1 1213 353ZM1237 325.1 1237 321 1241 321C1242.1 321 1243 320.1 1243 319 1243 317.9 1242.1 317 1241 317L1229 317C1227.9 317 1227 317.9 1227 319 1227 320.1 1227.9 321 1229 321L1233 321 1233 325.1C1218.5 326.1 1207 338.2 1207 353 1207 360.6 1210 367.5 1215 372.6L1211.2 380.1C1210.7 381.1 1211.1 382.3 1212.1 382.8 1212.4 382.9 1212.7 383 1213 383 1213.7 383 1214.4 382.6 1214.8 381.9L1218.1 375.3C1222.8 378.9 1228.6 381 1235 381 1241.4 381 1247.2 378.9 1251.9 375.3L1255.2 381.9C1255.6 382.6 1256.3 383 1257 383 1257.3 383 1257.6 382.9 1257.9 382.8 1258.9 382.3 1259.3 381.1 1258.8 380.1L1255 372.6C1259.9 367.6 1263 360.6 1263 353 1263 338.2 1251.5 326.1 1237 325.1Z" stroke="#7030A0" fill="#7030A0"/><path d="M1233 351 1219 351 1219 355 1235 355C1236.1 355 1237 354.1 1237 353L1237 337 1233 337 1233 351Z" stroke="#7030A0" fill="#7030A0"/><path d="M1267.2 325.2 1258.9 316.9C1257.3 315.3 1254.8 315.3 1253.2 316.9L1248 322 1262 336 1267.2 330.8C1268.7 329.3 1268.7 326.7 1267.2 325.2Z" stroke="#7030A0" fill="#7030A0"/><path d="M1222 322 1216.8 316.8C1215.2 315.2 1212.7 315.2 1211.1 316.8L1202.8 325.1C1201.2 326.7 1201.2 329.2 1202.8 330.8L1208 336 1222 322Z" stroke="#7030A0" fill="#7030A0"/></g></svg>