<svg width="96" height="96" xmlns="http://www.w3.org/2000/svg" xmlns:xlink="http://www.w3.org/1999/xlink" xml:space="preserve" overflow="hidden"><g transform="translate(-617 -464)"><path d="M691.005 545.999 691.005 471.999 639.005 471.999 639.005 545.999 627.005 545.999 627.005 551.999 639.005 551.999 641.004 551.999 645.005 551.999 645.005 477.999 685.005 477.999 685.005 551.999 689.005 551.999 691.005 551.999 703.005 551.999 703.005 545.999 691.005 545.999Z" stroke="#00B050" fill="#00B050"/><path d="M648.005 552 677.005 548 677.005 485 648.005 481ZM666 516 670.45 516C670.653 514.916 671.552 514.099 672.65 514 673.951 514 675 515.343 675 517 675 518.657 673.949 520 672.652 520 671.554 519.901 670.655 519.084 670.452 518L666 518Z" stroke="#00B050" fill="#00B050"/></g></svg>