<svg width="96" height="96" xmlns="http://www.w3.org/2000/svg" xmlns:xlink="http://www.w3.org/1999/xlink" xml:space="preserve" overflow="hidden"><g transform="translate(-738 -464)"><path d="M812.005 546 812.005 472 760.005 472 760.005 546 748.005 546 748.005 552 760.005 552 762.004 552 766.005 552 766.005 478 806.005 478 806.005 552 810.005 552 812.005 552 824.005 552 824.005 546 812.005 546Z" stroke="#FF0000" fill="#FF0000"/><path d="M769.005 552 803.005 552 803.005 481 769.005 481ZM788 516 793.684 516C794.236 514.438 795.95 513.619 797.512 514.172 799.075 514.724 799.893 516.438 799.341 518 798.789 519.562 797.075 520.381 795.512 519.828 794.658 519.526 793.986 518.854 793.684 518L788 518Z" stroke="#FF0000" fill="#FF0000"/></g></svg>