<svg width="96" height="96" xmlns="http://www.w3.org/2000/svg" xmlns:xlink="http://www.w3.org/1999/xlink" xml:space="preserve" overflow="hidden"><g transform="translate(-512 -431)"><path d="M598.061 504C595.661 502.077 593.817 500.366 592.727 497.613 592.562 497.18 592.433 496.734 592.341 496.28L592.318 496.18C592.168 495.493 591.56 495.002 590.857 495L529.271 495C528.566 495.002 527.958 495.494 527.809 496.183 527.715 496.651 527.583 497.111 527.414 497.558 526.306 500.35 524.439 502.1 522 504.049L522 508 598.123 508 598.123 504.128C598.123 504.078 598.1 504.031 598.061 504Z"/><path d="M592.061 487C590.126 485.222 588.738 482.928 588.061 480.389 585.375 469.258 576.783 463.489 565.061 462.257L565.061 462C565.059 460.013 563.882 458.217 562.061 457.422L562.061 454 564.061 454C565.166 454 566.061 453.105 566.061 452 566.061 450.895 565.166 450 564.061 450L556.061 450C554.956 450 554.061 450.895 554.061 452 554.061 453.105 554.956 454 556.061 454L558.061 454 558.061 457.422C556.24 458.217 555.063 460.014 555.061 462L555.061 462.257C543.34 463.49 534.747 469.257 532.061 480.389 531.384 482.929 529.997 485.222 528.061 487L528.061 491 592.061 491Z"/></g></svg>