<svg width="330" height="330" xmlns="http://www.w3.org/2000/svg" xmlns:xlink="http://www.w3.org/1999/xlink" xml:space="preserve" overflow="hidden"><g transform="translate(-1002 -1750)"><path d="M1297.83 2000.94C1289.58 1994.33 1283.25 1988.45 1279.5 1978.98 1278.93 1977.49 1278.49 1975.96 1278.17 1974.4L1278.09 1974.06C1277.58 1971.69 1275.49 1970.01 1273.07 1970L1061.37 1970C1058.95 1970.01 1056.86 1971.7 1056.34 1974.07 1056.02 1975.68 1055.57 1977.26 1054.99 1978.79 1051.18 1988.39 1044.76 1994.41 1036.38 2001.11L1036.38 2014.69 1298.05 2014.69 1298.05 2001.38C1298.05 2001.21 1297.97 2001.04 1297.83 2000.94Z" stroke="#FFFFFF" stroke-width="3.4375" fill="#FFFFFF"/><path d="M1277.21 1942.5C1270.56 1936.39 1265.79 1928.5 1263.46 1919.77 1254.23 1881.51 1224.69 1861.68 1184.4 1857.45L1184.4 1856.56C1184.39 1849.73 1180.34 1843.56 1174.08 1840.83L1174.08 1829.06 1180.96 1829.06C1184.76 1829.06 1187.83 1825.98 1187.83 1822.19 1187.83 1818.39 1184.76 1815.31 1180.96 1815.31L1153.46 1815.31C1149.66 1815.31 1146.58 1818.39 1146.58 1822.19 1146.58 1825.98 1149.66 1829.06 1153.46 1829.06L1160.33 1829.06 1160.33 1840.83C1154.08 1843.56 1150.03 1849.73 1150.02 1856.56L1150.02 1857.45C1109.73 1861.68 1080.19 1881.51 1070.96 1919.77 1068.63 1928.5 1063.86 1936.39 1057.21 1942.5L1057.21 1956.25 1277.21 1956.25Z" stroke="#FFFFFF" stroke-width="3.4375" fill="#FFFFFF"/><path d="M1167 1784.38C1094.84 1784.35 1036.32 1842.84 1036.3 1915 1036.28 1987.16 1094.76 2045.68 1166.92 2045.7 1239.09 2045.72 1297.6 1987.24 1297.62 1915.08 1297.62 1915.06 1297.62 1915.05 1297.62 1915.04 1297.66 1842.91 1239.23 1784.41 1167.11 1784.38 1167.07 1784.38 1167.04 1784.38 1167 1784.38ZM1167 2038.82C1098.69 2038.86 1043.27 1983.51 1043.24 1915.2 1043.22 1883.51 1055.36 1853.02 1077.16 1830.03L1252.01 2004.87C1229.08 2026.68 1198.64 2038.84 1167 2038.82ZM1256.87 2000.01 1082.03 1825.16C1131.63 1778.2 1209.9 1780.34 1256.87 1829.94 1302.02 1877.64 1302.02 1952.31 1256.87 2000.01Z" stroke="#FF0000" stroke-width="2.6854" fill="#FF0000"/></g></svg>