<svg width="96" height="96" xmlns="http://www.w3.org/2000/svg" xmlns:xlink="http://www.w3.org/1999/xlink" xml:space="preserve" overflow="hidden"><g transform="translate(-480 -272)"><path d="M566.061 345C563.661 343.077 561.817 341.366 560.727 338.613 560.562 338.18 560.433 337.734 560.341 337.28L560.318 337.18C560.168 336.493 559.56 336.002 558.857 336L497.271 336C496.566 336.002 495.958 336.494 495.809 337.183 495.715 337.651 495.583 338.111 495.414 338.558 494.306 341.35 492.439 343.1 490 345.049L490 349 566.123 349 566.123 345.128C566.123 345.078 566.1 345.031 566.061 345Z" stroke="#FFFFFF" fill="#FFFFFF"/><path d="M560.061 328C558.126 326.222 556.738 323.928 556.061 321.389 553.375 310.258 544.783 304.489 533.061 303.257L533.061 303C533.059 301.013 531.882 299.217 530.061 298.422L530.061 295 532.061 295C533.166 295 534.061 294.105 534.061 293 534.061 291.895 533.166 291 532.061 291L524.061 291C522.956 291 522.061 291.895 522.061 293 522.061 294.105 522.956 295 524.061 295L526.061 295 526.061 298.422C524.24 299.217 523.063 301.014 523.061 303L523.061 303.257C511.34 304.49 502.747 310.257 500.061 321.389 499.384 323.929 497.997 326.222 496.061 328L496.061 332 560.061 332Z" stroke="#FFFFFF" fill="#FFFFFF"/></g></svg>