<svg width="330" height="330" xmlns="http://www.w3.org/2000/svg" xmlns:xlink="http://www.w3.org/1999/xlink" xml:space="preserve" overflow="hidden"><g transform="translate(-1405 -1762)"><path d="M1700.83 2012.94C1692.58 2006.33 1686.25 2000.45 1682.5 1990.98 1681.93 1989.49 1681.49 1987.96 1681.17 1986.4L1681.09 1986.06C1680.58 1983.69 1678.49 1982.01 1676.07 1982L1464.37 1982C1461.95 1982.01 1459.86 1983.7 1459.34 1986.07 1459.02 1987.68 1458.57 1989.26 1457.99 1990.79 1454.18 2000.39 1447.76 2006.41 1439.37 2013.11L1439.37 2026.69 1701.05 2026.69 1701.05 2013.38C1701.05 2013.21 1700.97 2013.04 1700.83 2012.94Z"/><path d="M1680.21 1954.5C1673.56 1948.39 1668.79 1940.5 1666.46 1931.77 1657.23 1893.51 1627.69 1873.68 1587.4 1869.45L1587.4 1868.56C1587.39 1861.73 1583.34 1855.56 1577.08 1852.83L1577.08 1841.06 1583.96 1841.06C1587.76 1841.06 1590.83 1837.98 1590.83 1834.19 1590.83 1830.39 1587.76 1827.31 1583.96 1827.31L1556.46 1827.31C1552.66 1827.31 1549.58 1830.39 1549.58 1834.19 1549.58 1837.98 1552.66 1841.06 1556.46 1841.06L1563.33 1841.06 1563.33 1852.83C1557.08 1855.56 1553.03 1861.73 1553.02 1868.56L1553.02 1869.45C1512.73 1873.68 1483.19 1893.51 1473.96 1931.77 1471.63 1940.5 1466.86 1948.39 1460.21 1954.5L1460.21 1968.25 1680.21 1968.25Z"/><path d="M1570 1796.38C1497.84 1796.35 1439.32 1854.84 1439.3 1927 1439.28 1999.16 1497.76 2057.68 1569.92 2057.7 1642.09 2057.72 1700.6 1999.24 1700.62 1927.08 1700.62 1927.06 1700.62 1927.05 1700.62 1927.04 1700.66 1854.91 1642.23 1796.42 1570.11 1796.38 1570.07 1796.38 1570.04 1796.38 1570 1796.38ZM1570 2050.82C1501.69 2050.86 1446.27 1995.51 1446.24 1927.2 1446.22 1895.51 1458.36 1865.02 1480.16 1842.03L1655.01 2016.87C1632.08 2038.68 1601.64 2050.84 1570 2050.82ZM1659.87 2012.01 1485.02 1837.16C1534.63 1790.2 1612.9 1792.34 1659.87 1841.94 1705.02 1889.64 1705.02 1964.31 1659.87 2012.01Z" stroke="#FF0000" stroke-width="2.6854" fill="#FF0000"/></g></svg>