<svg width="96" height="96" xmlns="http://www.w3.org/2000/svg" xmlns:xlink="http://www.w3.org/1999/xlink" xml:space="preserve" overflow="hidden"><g transform="translate(-981 -300)"><path d="M1033.1 382.1 1002 369.2 1024.8 313.9 1056 326.8 1033.1 382.1ZM1039.8 312 1046.7 314.9C1047.7 315.3 1048.1 316.4 1047.7 317.3 1047.3 318.3 1046.2 318.7 1045.3 318.3L1038.4 315.4C1037.4 315 1037 313.9 1037.4 313 1037.7 312.1 1038.8 311.6 1039.8 312ZM1063.7 317.8 1025.7 302.1C1024.7 301.7 1023.7 302.2 1023.3 303.1L993.3 375.7C992.9 376.7 993.4 377.7 994.3 378.1L1032.3 393.8C1033.3 394.2 1034.3 393.7 1034.7 392.8L1064.6 320.2C1065.1 319.3 1064.6 318.2 1063.7 317.8L1063.7 317.8Z" stroke="#7030A0" fill="#7030A0"/><path d="M1051.4 376.7 1049.1 373.3 1053.6 370.3 1052.3 363.7 1057.9 359.9 1056.6 353.3 1062.2 349.6 1061.1 344.3 1065 343.5 1066.6 351.4 1061 355.2 1062.3 361.8 1056.7 365.5 1058.1 372.2Z" stroke="#7030A0" fill="#7030A0"/><path d="M992.9 352.6 991.4 344.6 997 340.9 995.6 334.3 1001.2 330.5 999.9 323.9 1006.6 319.4 1008.9 322.7 1004.4 325.7 1005.7 332.3 1000.1 336.1 1001.4 342.7 995.8 346.5 996.9 351.8Z" stroke="#7030A0" fill="#7030A0"/></g></svg>