<svg width="96" height="96" xmlns="http://www.w3.org/2000/svg" xmlns:xlink="http://www.w3.org/1999/xlink" xml:space="preserve" overflow="hidden"><g transform="translate(-971 -300)"><path d="M1023.1 382.1 992 369.2 1014.8 313.9 1046 326.8 1023.1 382.1ZM1029.8 312 1036.7 314.9C1037.7 315.3 1038.1 316.4 1037.7 317.3 1037.3 318.3 1036.2 318.7 1035.3 318.3L1028.4 315.4C1027.4 315 1027 313.9 1027.4 313 1027.7 312.1 1028.8 311.6 1029.8 312ZM1053.7 317.8 1015.7 302.1C1014.7 301.7 1013.7 302.2 1013.3 303.1L983.3 375.7C982.9 376.7 983.4 377.7 984.3 378.1L1022.3 393.8C1023.3 394.2 1024.3 393.7 1024.7 392.8L1054.6 320.2C1055.1 319.3 1054.6 318.2 1053.7 317.8L1053.7 317.8Z" stroke="#FFFFFF" fill="#FFFFFF"/><path d="M1041.4 376.7 1039.1 373.3 1043.6 370.3 1042.3 363.7 1047.9 359.9 1046.6 353.3 1052.2 349.6 1051.1 344.3 1055 343.5 1056.6 351.4 1051 355.2 1052.3 361.8 1046.7 365.5 1048.1 372.2Z" stroke="#FFFFFF" fill="#FFFFFF"/><path d="M982.9 352.6 981.4 344.6 987 340.9 985.6 334.3 991.2 330.5 989.9 323.9 996.6 319.4 998.9 322.7 994.4 325.7 995.7 332.3 990.1 336.1 991.4 342.7 985.8 346.5 986.9 351.8Z" stroke="#FFFFFF" fill="#FFFFFF"/></g></svg>